<?xml version="1.0" standalone="no"?>
<!DOCTYPE svg PUBLIC "-//W3C//DTD SVG 20010904//EN"
 "http://www.w3.org/TR/2001/REC-SVG-20010904/DTD/svg10.dtd">
<svg version="1.0" xmlns="http://www.w3.org/2000/svg"
 width="1024.000000pt" height="512.000000pt" viewBox="0 0 1024.000000 512.000000"
 preserveAspectRatio="xMidYMid meet">

<g transform="translate(0.000000,512.000000) scale(0.100000,-0.100000)"
fill="#000000" stroke="none">
<path d="M1655 4446 c-16 -7 -40 -24 -51 -37 -22 -24 -123 -192 -249 -414 -38
-66 -78 -136 -90 -155 -12 -19 -69 -114 -125 -210 -57 -96 -279 -467 -493
-825 -215 -357 -404 -679 -421 -715 -24 -52 -31 -81 -34 -151 -7 -145 38 -247
135 -309 87 -55 108 -56 555 -11 222 22 432 43 468 46 36 3 207 19 380 35 173
17 385 37 470 45 213 21 217 20 294 -20 45 -23 81 -35 108 -35 26 0 45 -6 56
-19 35 -38 120 -62 291 -81 342 -38 449 -45 671 -42 144 2 253 -2 303 -9 61
-10 94 -10 147 -1 101 17 115 26 128 80 6 26 9 48 8 50 -2 1 -19 -5 -39 -13
-69 -29 -207 -7 -193 31 3 8 2 13 -3 10 -5 -3 -14 1 -21 9 -10 13 -9 15 9 15
12 0 34 8 48 17 l26 17 -5 -27 c-6 -29 9 -36 30 -15 9 9 12 4 12 -25 0 -34 2
-37 28 -37 17 0 23 3 14 8 -9 7 -8 13 8 27 11 10 20 23 20 30 0 23 -32 75 -46
75 -8 0 -14 4 -14 9 0 10 24 21 45 21 17 0 38 -61 29 -83 -9 -26 24 -21 47 6
41 49 9 94 -66 95 -44 1 -107 22 -88 29 7 2 21 -1 32 -6 13 -8 22 -8 26 -1 3
6 -1 13 -9 16 -9 3 -16 10 -16 15 0 11 34 12 44 1 4 -4 12 -8 17 -8 5 -1 13
-2 19 -3 5 0 7 -7 4 -14 -3 -8 9 -18 29 -25 43 -16 50 -15 44 2 -3 8 -1 17 6
20 8 3 8 5 -1 5 -10 1 -9 5 3 17 21 22 15 49 -12 49 -35 0 -36 12 -3 24 18 6
29 15 25 21 -4 6 -3 16 3 23 5 7 12 20 15 29 5 15 3 16 -12 7 -25 -16 -74 28
-60 54 13 23 28 21 56 -5 20 -19 25 -20 33 -8 14 21 12 115 -2 163 -7 22 -29
58 -49 79 -73 77 -158 40 -224 -96 -34 -71 -45 -126 -26 -126 6 0 29 -24 52
-54 39 -50 69 -64 69 -31 0 7 9 23 19 36 18 22 20 22 26 7 4 -10 11 -16 16
-13 4 3 2 -7 -6 -22 -28 -53 -17 -65 35 -38 17 9 30 11 30 5 0 -5 -17 -18 -37
-29 -21 -11 -33 -20 -27 -21 6 0 11 -7 11 -15 0 -9 -6 -14 -12 -11 -7 2 -17 0
-23 -6 -7 -7 -12 -3 -17 11 -3 12 -14 21 -23 21 -13 0 -13 2 3 13 10 8 15 19
11 25 -12 19 -23 14 -30 -14 -6 -23 -11 -26 -37 -20 -17 3 -40 12 -51 20 -21
15 -21 15 8 13 26 -2 29 1 27 25 -2 31 -32 77 -50 78 -19 0 -35 -39 -31 -71 3
-16 0 -29 -5 -29 -5 0 -7 -5 -5 -12 2 -6 31 -19 63 -28 35 -10 54 -19 47 -24
-7 -4 -12 -4 -12 1 0 4 -4 2 -9 -6 -7 -11 -13 -12 -23 -4 -7 6 -26 13 -42 15
-24 2 -30 -1 -37 -24 -4 -15 -4 -30 0 -33 3 -4 6 -12 6 -18 1 -7 7 -11 15 -9
16 2 -13 -24 -34 -31 -6 -2 -8 -8 -4 -12 4 -4 25 0 47 9 33 13 39 13 35 1 -10
-25 -75 -69 -84 -56 -5 9 -32 10 -111 1 -122 -12 -400 -5 -574 15 -180 21
-265 25 -312 16 -34 -7 -43 -5 -43 5 0 10 -16 14 -57 14 -86 0 -379 31 -531
56 -32 5 -72 34 -72 53 0 16 67 20 107 6 60 -21 470 -60 743 -71 126 -5 158
-3 174 8 10 8 39 55 65 104 l46 89 54 3 c80 5 93 -23 21 -45 l-35 -11 34 -1
c28 -1 32 -3 21 -16 -7 -8 -34 -18 -61 -21 -62 -8 -64 -24 -3 -24 53 0 57 -21
5 -31 -44 -9 -51 -19 -12 -19 28 0 31 -3 26 -20 -10 -32 31 -40 203 -40 178 0
232 6 232 26 0 29 -61 203 -79 225 l-18 23 -422 0 -421 1 0 -31 c0 -18 -6 -34
-12 -36 -7 -3 -94 1 -193 8 -99 7 -186 13 -192 13 -8 1 -13 15 -13 35 0 34 0
35 -52 40 -204 22 -223 22 -235 11 -15 -16 -56 -19 -653 -55 -848 -50 -901
-53 -907 -47 -3 3 38 84 90 179 104 190 447 826 602 1118 106 198 185 350 347
663 57 108 106 197 110 197 4 0 157 -224 339 -497 392 -588 637 -952 656 -974
13 -16 19 -15 76 2 54 17 116 20 462 28 220 6 486 10 591 9 250 0 255 2 337
168 25 50 58 113 74 140 l30 49 -71 -4 c-50 -3 -63 -6 -46 -11 22 -6 19 -8
-20 -13 -25 -3 -97 -13 -161 -22 -118 -15 -161 -26 -259 -65 -30 -12 -77 -25
-105 -28 -49 -7 -51 -8 -82 -67 -18 -33 -33 -68 -33 -77 0 -15 -9 -18 -46 -18
-51 0 -164 -15 -240 -31 -43 -10 -64 -9 -123 6 -57 14 -80 15 -114 7 -23 -6
-44 -8 -48 -4 -3 4 -45 66 -93 137 -48 72 -130 191 -181 265 -52 74 -127 185
-169 245 -41 61 -128 188 -193 282 -65 95 -188 275 -273 399 -160 235 -200
283 -260 314 -50 25 -138 34 -175 16z m2155 -1505 l35 -15 -45 -7 c-25 -4 -57
-11 -72 -14 -28 -7 -29 -2 -12 53 4 14 37 8 94 -17z m-683 -167 c-3 -3 -12 -4
-19 -1 -8 3 -5 6 6 6 11 1 17 -2 13 -5z m336 -1 c-13 -2 -33 -2 -45 0 -13 2
-3 4 22 4 25 0 35 -2 23 -4z m687 -633 c0 -23 -13 -25 -59 -9 -45 16 -38 29
14 29 38 0 45 -3 45 -20z m-110 -10 c0 -5 -7 -10 -15 -10 -8 0 -15 5 -15 10 0
6 7 10 15 10 8 0 15 -4 15 -10z m158 -2 c-6 -18 -28 -21 -28 -4 0 9 7 16 16
16 9 0 14 -5 12 -12z m-1941 -104 c-3 -3 -12 -4 -19 -1 -8 3 -5 6 6 6 11 1 17
-2 13 -5z m1807 -199 c-7 -16 -39 -20 -48 -6 -7 10 9 19 36 20 12 1 15 -4 12
-14z"/>
<path d="M4693 4053 c9 -2 23 -2 30 0 6 3 -1 5 -18 5 -16 0 -22 -2 -12 -5z"/>
<path d="M4413 3853 c15 -2 39 -2 55 0 15 2 2 4 -28 4 -30 0 -43 -2 -27 -4z"/>
<path d="M4600 3840 c153 -12 350 -18 311 -9 -19 4 -120 9 -225 12 -145 4
-166 4 -86 -3z"/>
<path d="M4302 3537 l-8 -32 95 -8 c173 -14 168 -9 135 -171 -13 -66 -26 -121
-27 -123 -2 -2 -57 1 -122 7 -118 9 -166 7 -83 -4 80 -11 422 -36 473 -34 27
0 -8 6 -80 12 -74 6 -129 15 -128 21 0 6 11 59 23 118 12 59 20 125 18 145 -3
31 0 37 16 35 123 -10 276 -14 276 -6 0 12 -263 31 -290 21 -12 -4 -20 -2 -24
7 -7 19 -64 32 -173 39 l-92 6 -9 -33z"/>
<path d="M6093 3183 c-45 -104 -85 -196 -89 -205 -5 -16 0 -18 40 -18 46 0 47
1 66 45 l20 46 92 -3 93 -3 19 -42 c19 -42 21 -43 68 -43 26 0 48 1 48 3 0 1
-40 93 -89 202 l-89 200 -48 3 -49 2 -82 -187z m165 10 l30 -73 -64 0 c-35 0
-64 2 -64 4 0 2 9 26 21 53 11 26 25 59 30 72 5 13 11 22 13 20 2 -2 17 -37
34 -76z"/>
<path d="M1480 3350 c0 -6 83 -177 185 -380 102 -203 185 -378 185 -388 0 -10
-11 -41 -25 -69 -33 -65 -68 -83 -165 -83 -70 0 -72 -1 -67 -22 3 -13 11 -53
17 -90 13 -75 17 -78 112 -78 108 0 196 27 251 79 57 52 61 65 226 744 34 137
58 253 55 258 -3 5 -47 9 -99 9 l-93 0 -26 -112 c-77 -331 -89 -379 -97 -371
-5 5 -60 119 -123 253 -129 278 -107 257 -253 259 -50 1 -83 -3 -83 -9z"/>
<path d="M6500 3120 l0 -160 98 0 c113 0 165 12 187 43 21 31 19 61 -9 94 -24
28 -24 29 -5 52 38 46 15 103 -49 121 -20 5 -79 10 -129 10 l-93 0 0 -160z
m184 94 c9 -4 16 -18 16 -34 0 -32 -14 -40 -71 -40 -39 0 -39 0 -39 40 0 40 0
40 39 40 22 0 46 -3 55 -6z m21 -159 c0 -30 -1 -30 -57 -33 l-58 -3 0 36 0 36
58 -3 c56 -3 57 -3 57 -33z"/>
<path d="M6830 3245 l0 -35 50 0 50 0 0 -125 0 -125 45 0 44 0 3 123 3 122 53
3 52 3 0 35 0 34 -150 0 -150 0 0 -35z"/>
<path d="M7246 3270 c-92 -29 -137 -152 -83 -230 40 -59 71 -75 147 -75 54 0
75 4 97 21 97 72 98 195 2 266 -29 22 -120 32 -163 18z m97 -72 c33 -17 46
-39 46 -78 0 -49 -38 -90 -84 -90 -29 0 -75 55 -75 90 0 22 9 41 29 61 32 31
50 35 84 17z"/>
<path d="M7540 3120 l0 -160 240 0 240 0 0 160 0 160 -45 0 -45 0 0 -125 0
-125 -50 0 -50 0 0 125 0 125 -45 0 -44 0 -3 -122 -3 -123 -50 0 -50 0 -3 123
-3 122 -44 0 -45 0 0 -160z"/>
<path d="M8110 3120 l0 -160 45 0 45 0 0 60 c0 59 1 60 28 60 22 0 34 -12 67
-60 l40 -60 53 0 c60 0 61 -7 -10 91 -26 37 -48 70 -48 74 0 4 23 38 50 76 28
38 50 71 50 74 0 3 -20 5 -44 5 -44 0 -46 -2 -92 -66 -36 -50 -51 -64 -68 -62
-18 3 -21 11 -24 66 l-3 62 -44 0 -45 0 0 -160z"/>
<path d="M8556 3270 c-92 -29 -137 -152 -83 -230 40 -59 71 -75 147 -75 54 0
75 4 97 21 97 72 98 195 2 266 -29 22 -120 32 -163 18z m97 -72 c33 -17 46
-39 46 -78 0 -49 -38 -90 -84 -90 -29 0 -75 55 -75 90 0 22 9 41 29 61 32 31
50 35 84 17z"/>
<path d="M8886 3243 c-3 -21 -6 -64 -6 -95 0 -68 -14 -108 -39 -115 -13 -3
-20 -16 -23 -39 -4 -34 -4 -34 38 -34 70 0 92 36 103 165 l6 80 48 3 47 3 0
-125 0 -126 45 0 45 0 0 160 0 160 -129 0 -128 0 -7 -37z"/>
<path d="M9290 3269 c-55 -17 -62 -26 -45 -59 l14 -28 47 16 c53 17 88 10 112
-25 14 -23 14 -23 -39 -23 -110 0 -159 -30 -159 -98 0 -69 85 -110 167 -80 36
13 43 13 43 2 0 -10 14 -14 46 -14 l46 0 -3 118 c-4 123 -12 146 -59 179 -27
19 -124 26 -170 12z m140 -186 c0 -9 -10 -27 -22 -40 -35 -37 -98 -26 -98 17
0 28 22 40 72 40 38 0 48 -3 48 -17z"/>
<path d="M4385 3075 c-16 -20 -32 -39 -35 -42 -3 -3 1 -2 9 2 11 6 13 4 7 -11
-4 -10 7 -2 24 19 17 20 39 37 48 37 14 0 15 2 3 9 -11 7 -6 11 20 14 34 4 34
4 -6 5 -35 2 -44 -3 -70 -33z"/>
<path d="M4578 3093 c7 -3 16 -2 19 1 4 3 -2 6 -13 5 -11 0 -14 -3 -6 -6z"/>
<path d="M4645 3070 c22 -10 65 -30 95 -45 30 -14 46 -22 35 -19 -11 4 -60 19
-110 35 -49 15 -84 28 -76 28 8 1 12 4 9 7 -3 3 -24 1 -46 -5 -38 -11 -39 -13
-46 -64 -3 -28 -9 -64 -12 -79 -6 -28 -6 -28 52 -29 l59 -2 -51 -6 c-59 -7
-87 -26 -79 -52 3 -9 2 -20 -4 -23 -5 -3 -7 -14 -4 -25 2 -10 -2 -42 -11 -71
-9 -30 -14 -55 -12 -57 2 -2 68 3 147 11 79 8 196 18 260 22 64 3 122 10 129
14 8 5 4 23 -18 67 -87 171 -152 241 -269 288 -73 29 -107 33 -48 5z m202
-322 c-23 -15 -57 -9 -56 10 0 10 3 12 6 5 7 -18 32 -16 40 3 5 12 7 13 14 3
5 -8 3 -17 -4 -21z"/>
<path d="M4450 3059 c-44 -18 -68 -49 -111 -147 -41 -93 -42 -98 -36 -175 4
-44 8 -81 10 -83 2 -2 12 -5 23 -7 10 -2 27 -8 38 -12 13 -6 22 -3 30 11 9 16
30 103 40 164 1 8 6 25 10 37 9 27 15 57 22 108 4 22 10 48 15 57 13 24 11 58
-3 57 -7 0 -24 -5 -38 -10z"/>
<path d="M8110 2641 l0 -59 -49 -7 c-94 -13 -141 -65 -141 -157 0 -85 53 -140
147 -154 l43 -6 0 -54 0 -54 40 0 40 0 0 54 0 54 43 6 c97 15 156 91 142 184
-11 72 -86 132 -167 132 -15 0 -18 10 -18 60 l0 60 -40 0 -40 0 0 -59z m0
-221 c0 -99 -4 -104 -59 -75 -32 16 -41 33 -41 79 0 46 37 85 83 86 15 0 17
-11 17 -90z m151 61 c20 -20 29 -39 29 -61 0 -37 -47 -90 -79 -90 -20 0 -21 6
-21 90 0 84 1 90 21 90 11 0 34 -13 50 -29z"/>
<path d="M6090 2598 c-1 -155 -27 -254 -71 -265 -16 -5 -19 -15 -19 -79 l0
-74 45 0 45 0 0 40 0 40 140 0 140 0 0 -40 0 -40 45 0 45 0 0 74 c0 74 0 75
-27 78 l-28 3 -3 168 -2 167 -155 0 -155 0 0 -72z m220 -133 l0 -135 -86 0
-86 0 7 28 c13 53 25 137 25 183 0 25 3 49 7 52 3 4 35 7 70 7 l63 0 0 -135z"/>
<path d="M4457 2643 c-4 -3 -7 -19 -7 -35 0 -40 24 -31 28 10 3 30 -6 41 -21
25z"/>
<path d="M4038 2605 c-59 -13 -138 -33 -175 -44 -38 -11 -108 -25 -158 -31
-161 -19 -268 -42 -254 -52 10 -7 5 -8 -17 -4 -16 2 -55 -1 -85 -9 l-54 -13
51 -1 c28 -1 65 -4 82 -7 28 -6 29 -8 16 -21 -9 -9 -12 -23 -8 -36 5 -17 3
-19 -12 -12 -57 24 -103 37 -139 40 -22 2 -42 5 -45 5 -3 1 9 8 25 15 26 12 2
14 -208 15 -191 0 -244 3 -267 15 -20 10 -35 12 -52 6 -22 -9 -22 -10 7 -12
18 -1 23 -3 13 -6 -11 -3 -18 -14 -18 -29 0 -20 -5 -24 -30 -24 -18 0 -30 -5
-30 -13 0 -16 38 -16 68 2 28 15 40 8 22 -14 -11 -13 -15 -13 -22 -3 -5 8 -7
0 -5 -22 l2 -35 205 -3 c124 -1 246 -8 309 -18 96 -15 121 -15 325 1 133 10
225 21 232 28 12 12 44 102 44 121 0 6 -14 -10 -30 -35 -29 -44 -33 -47 -97
-57 -49 -8 -70 -8 -80 0 -9 7 -46 9 -113 4 -101 -6 -124 1 -77 25 12 6 31 20
42 30 22 19 80 26 133 14 20 -5 32 -4 32 3 0 6 -15 13 -32 15 -18 3 -6 4 27 3
47 -1 60 2 60 14 0 8 -8 16 -17 18 -13 2 -16 -1 -12 -12 5 -12 2 -15 -10 -10
-9 3 -16 10 -16 14 0 12 38 23 51 15 17 -11 150 6 146 18 -2 6 -14 14 -28 17
-14 4 -19 9 -13 13 15 9 240 64 298 72 25 4 46 11 46 16 0 12 -8 11 -132 -16z
m-280 -92 c-15 -2 -42 -2 -60 0 -18 2 -6 4 27 4 33 0 48 -2 33 -4z m-111 -9
c-3 -3 -12 -4 -19 -1 -8 3 -5 6 6 6 11 1 17 -2 13 -5z m-27 -34 c-14 -4 -36
-8 -50 -8 l-25 0 25 8 c14 4 36 8 50 8 l25 0 -25 -8z m-226 -105 c-4 -9 0 -15
9 -15 9 0 19 -5 23 -11 5 -8 -6 -9 -37 -4 -54 9 -57 12 -33 30 25 19 45 19 38
0z m-75 -41 c9 -8 -45 -2 -64 6 -14 7 -8 8 20 3 22 -3 42 -7 44 -9z m464 9
c-13 -2 -33 -2 -45 0 -13 2 -3 4 22 4 25 0 35 -2 23 -4z"/>
<path d="M6596 2570 c-92 -29 -137 -152 -83 -230 40 -59 71 -75 147 -75 54 0
75 4 97 21 97 72 98 195 2 266 -29 22 -120 32 -163 18z m97 -72 c33 -17 46
-39 46 -78 0 -49 -38 -90 -84 -90 -29 0 -75 55 -75 90 0 22 9 41 29 61 32 31
50 35 84 17z"/>
<path d="M6960 2558 c-133 -68 -117 -246 27 -288 55 -17 125 -5 163 26 37 31
37 37 4 59 -26 16 -28 16 -64 -4 -21 -12 -45 -21 -55 -21 -29 0 -75 55 -75 90
0 35 46 90 75 90 21 0 58 -19 68 -36 6 -11 14 -10 42 3 41 20 43 32 12 61 -49
46 -130 54 -197 20z"/>
<path d="M7290 2569 c-55 -17 -62 -26 -45 -59 l14 -28 47 16 c53 17 88 10 112
-25 14 -23 14 -23 -39 -23 -110 0 -159 -30 -159 -98 0 -69 85 -110 167 -80 36
13 43 13 43 2 0 -10 14 -14 46 -14 l46 0 -3 118 c-4 123 -12 146 -59 179 -27
19 -124 26 -170 12z m140 -186 c0 -9 -10 -27 -22 -40 -35 -37 -98 -26 -98 17
0 28 22 40 72 40 38 0 48 -3 48 -17z"/>
<path d="M7640 2569 c-55 -17 -62 -26 -45 -59 l14 -28 47 16 c53 17 88 10 112
-25 14 -23 14 -23 -39 -23 -110 0 -159 -30 -159 -98 0 -69 85 -110 167 -80 36
13 43 13 43 2 0 -10 14 -14 46 -14 l46 0 -3 118 c-4 123 -12 146 -59 179 -27
19 -124 26 -170 12z m140 -186 c0 -9 -10 -27 -22 -40 -35 -37 -98 -26 -98 17
0 28 22 40 72 40 38 0 48 -3 48 -17z"/>
<path d="M4782 2533 c-15 -6 -6 -23 12 -23 7 0 21 7 32 15 18 14 18 14 -6 14
-14 0 -31 -3 -38 -6z"/>
<path d="M2372 2455 c4 -4 1 -24 -8 -43 -11 -26 -11 -37 -3 -43 18 -11 0 -31
-22 -24 -10 4 -19 2 -19 -3 0 -5 57 -9 128 -10 70 -1 161 -5 203 -8 52 -4 79
-3 83 5 5 7 -4 11 -27 11 -27 0 -36 5 -40 22 -4 12 0 29 7 38 7 8 18 24 24 35
10 20 6 20 -161 23 -95 2 -169 1 -165 -3z"/>
<path d="M3631 2387 c-8 -11 -5 -13 19 -9 17 2 33 8 36 13 9 14 -42 10 -55 -4z"/>
<path d="M5022 2353 c-11 -21 -27 -78 -36 -128 -23 -116 -51 -181 -85 -194
-54 -21 -64 -36 -56 -87 10 -69 48 -104 114 -104 41 0 55 5 79 28 16 15 35 37
41 49 11 22 10 22 -13 12 -31 -14 -52 -7 -59 21 -4 16 0 23 19 30 13 5 24 16
24 24 0 9 7 13 20 11 24 -5 27 10 4 19 -11 4 -22 -1 -30 -13 -7 -10 -23 -21
-34 -24 -17 -4 -20 -2 -15 14 4 11 2 19 -6 19 -8 0 -8 4 1 15 9 11 23 14 45 9
23 -4 39 -1 53 12 23 20 18 44 -9 44 -17 0 -18 3 -7 20 14 21 34 28 22 8 -4
-7 1 -5 11 4 33 30 18 217 -18 240 -26 17 -47 7 -65 -29z m52 -105 c21 -29 20
-54 0 -62 -10 -4 -14 -14 -11 -26 3 -11 0 -26 -7 -33 -7 -7 -11 -23 -10 -35 5
-28 -5 -28 -33 2 -28 29 -29 36 -5 36 15 0 15 2 2 10 -13 9 -13 12 3 21 17 10
17 12 2 29 -11 12 -13 20 -6 25 6 3 11 15 11 25 0 16 11 27 32 29 4 1 14 -9
22 -21z"/>
<path d="M2545 2140 c-3 -5 3 -13 12 -19 24 -13 145 -11 140 2 -4 13 -64 16
-94 5 -13 -4 -23 -4 -23 1 0 13 -28 22 -35 11z"/>
<path d="M2755 2120 c-17 -7 -15 -9 12 -9 17 -1 35 4 38 9 7 12 -22 12 -50 0z"/>
<path d="M4316 2048 c-3 -29 -5 -78 -4 -108 2 -63 -13 -125 -44 -190 -25 -51
-50 -150 -38 -150 15 0 60 42 96 92 25 34 66 69 121 104 100 65 123 84 123
102 0 10 -7 12 -22 8 -89 -23 -169 -39 -173 -34 -3 3 -2 16 3 28 6 15 4 49 -5
89 -24 122 -48 146 -57 59z"/>
<path d="M5060 1991 c0 -5 7 -12 16 -15 22 -9 24 -8 24 9 0 8 -9 15 -20 15
-11 0 -20 -4 -20 -9z"/>
<path d="M4148 1363 c6 -2 18 -2 25 0 6 3 1 5 -13 5 -14 0 -19 -2 -12 -5z"/>
</g>
</svg>
